<svg width="68" height="68" viewBox="0 0 68 68" fill="none" xmlns="http://www.w3.org/2000/svg">
<g filter="url(#filter0_d)">
<circle cx="34" cy="30.0002" r="28.5" stroke="url(#paint0_linear)" stroke-width="3"/>
<mask id="mask0" mask-type="alpha" maskUnits="userSpaceOnUse" x="9" y="11" width="46" height="43">
<path d="M53.4999 26.4953C53.4999 30.5117 52.3923 34.0812 50.68 36.6041C48.9621 39.1351 46.7459 40.4826 44.4882 40.4826C42.2306 40.4826 40.0144 39.1351 38.2965 36.6041C36.5841 34.0812 35.4766 30.5117 35.4766 26.4953C35.4766 22.479 36.5841 18.9095 38.2965 16.3866C40.0144 13.8556 42.2306 12.5081 44.4882 12.5081C46.7459 12.5081 48.9621 13.8556 50.68 16.3866C52.3923 18.9095 53.4999 22.479 53.4999 26.4953Z" fill="#111010" stroke="url(#paint1_linear)" stroke-width="3"/>
<path d="M40.2708 52.1798C38.1419 52.1237 36.3012 51.5661 35.0501 50.788C33.7639 49.9881 33.3438 49.1375 33.3603 48.5134C33.3769 47.8893 33.8413 47.062 35.1681 46.331C36.4586 45.6199 38.3262 45.1601 40.4551 45.2162C42.584 45.2723 44.4246 45.8299 45.6758 46.608C46.962 47.4079 47.382 48.2585 47.3655 48.8826C47.349 49.5067 46.8846 50.334 45.5578 51.0651C44.2673 51.7761 42.3997 52.236 40.2708 52.1798Z" fill="#111010" stroke="url(#paint2_linear)" stroke-width="3"/>
<path d="M29.4733 26.4953C29.4733 30.5117 28.3657 34.0812 26.6534 36.6041C24.9355 39.1351 22.7193 40.4826 20.4616 40.4826C18.2039 40.4826 15.9878 39.1351 14.2699 36.6041C12.5575 34.0812 11.45 30.5117 11.45 26.4953C11.45 22.479 12.5575 18.9095 14.2699 16.3866C15.9878 13.8556 18.2039 12.5081 20.4616 12.5081C22.7193 12.5081 24.9355 13.8556 26.6534 16.3866C28.3657 18.9095 29.4733 22.479 29.4733 26.4953Z" fill="#111010" stroke="url(#paint3_linear)" stroke-width="3"/>
</mask>
<g mask="url(#mask0)">
<rect opacity="0.5" x="8" y="9.14526" width="51" height="44.7089" fill="url(#paint4_linear)"/>
</g>
</g>
<defs>
<filter id="filter0_d" x="0" y="0.000244141" width="68" height="68" filterUnits="userSpaceOnUse" color-interpolation-filters="sRGB">
<feFlood flood-opacity="0" result="BackgroundImageFix"/>
<feColorMatrix in="SourceAlpha" type="matrix" values="0 0 0 0 0 0 0 0 0 0 0 0 0 0 0 0 0 0 127 0"/>
<feOffset dy="4"/>
<feGaussianBlur stdDeviation="2"/>
<feColorMatrix type="matrix" values="0 0 0 0 0 0 0 0 0 0 0 0 0 0 0 0 0 0 0.25 0"/>
<feBlend mode="normal" in2="BackgroundImageFix" result="effect1_dropShadow"/>
<feBlend mode="normal" in="SourceGraphic" in2="effect1_dropShadow" result="shape"/>
</filter>
<linearGradient id="paint0_linear" x1="34" y1="0.000244141" x2="34" y2="60.0002" gradientUnits="userSpaceOnUse">
<stop stop-color="#3ABC47"/>
<stop offset="1" stop-color="#5C5266"/>
</linearGradient>
<linearGradient id="paint1_linear" x1="44.9888" y1="28.4937" x2="44.4902" y2="41.9826" gradientUnits="userSpaceOnUse">
<stop stop-color="#8458B3"/>
<stop offset="1" stop-color="#BC3A80"/>
</linearGradient>
<linearGradient id="paint2_linear" x1="39.2596" y1="48.9063" x2="31.8664" y2="48.3935" gradientUnits="userSpaceOnUse">
<stop stop-color="#8458B3"/>
<stop offset="1" stop-color="#BC3A80"/>
</linearGradient>
<linearGradient id="paint3_linear" x1="20.9622" y1="28.4937" x2="20.4635" y2="41.9826" gradientUnits="userSpaceOnUse">
<stop stop-color="#8458B3"/>
<stop offset="1" stop-color="#BC3A80"/>
</linearGradient>
<linearGradient id="paint4_linear" x1="33" y1="24.3869" x2="33.5162" y2="53.8539" gradientUnits="userSpaceOnUse">
<stop stop-color="#3ABC47"/>
<stop offset="1" stop-color="#5C5266"/>
</linearGradient>
</defs>
</svg>
